<svg id="Layer_1" data-name="Layer 1" xmlns="http://www.w3.org/2000/svg" viewBox="0 0 1080 1080"><defs><style>.cls-1{fill:#fff;}.cls-2{fill:#a2acd8;}.cls-3{fill:#1d194b;}</style></defs><rect class="cls-1" width="1080" height="1080"/><path class="cls-2" d="M635.5,443.79h-6.37c-42.59,0-85.17-.12-127.76,0-7,0-12.86-1.71-15.61-8.44-2.83-7-1.2-13.35,4.32-18.74q31.69-30.94,63.29-62,3.84-3.76,7.67-7.56c8.08-8,17.94-11.74,29.16-11.77q69.75-.18,139.5-.14c9.11,0,15.6,6.2,15.62,15.25.08,47.81.16,95.61,0,143.42-.06,13.54-4.69,25.18-14.9,34.91-22,20.93-43.29,42.55-65.07,63.67A25.89,25.89,0,0,1,655,598.6c-10.64,3.13-19.5-4-19.52-15.4q-.09-66.33,0-132.65Z"/><path class="cls-3" d="M485.72,592H475.24l-121.35-.13c-1.63,0-3.26,0-4.89-.06a14.62,14.62,0,0,1-12-22.69,36.2,36.2,0,0,1,5.45-6.24c21.89-21.46,43.94-42.78,65.71-64.37,10.43-10.34,22.57-15.31,37.31-15.25,44.36.18,88.73,0,133.09-.07,11.18,0,17,5.73,17,16.73,0,44.53-.12,89.06.17,133.59.11,17.45-5.21,31.77-18.33,44-20.77,19.32-40.62,39.64-60.74,59.64-4.32,4.3-8.89,7.44-15.24,7.72-9,.41-15.66-6.06-15.67-16q-.06-64.85,0-129.68Z"/><path class="cls-2" d="M446.62,687.17q0,21.29,0,42.56c0,9.4-4.72,14.35-14,14.39q-41.83.15-83.66,0c-7.77,0-13.39-5.06-13.45-12.54q-.33-44-.18-88.06c0-7.83,5.7-12.44,14.51-12.45q38.88-.06,77.78,0c2.12,0,4.24-.06,6.36,0,7.84.23,12.68,5.2,12.68,13q0,21.52,0,43Z"/></svg>